<svg xmlns="http://www.w3.org/2000/svg" width="24.273" height="24" viewBox="0 0 24.273 24"><path d="M84.915,164.359a.882.882,0,0,1-.91-.91v-8.5a.825.825,0,0,1,.273-.622.9.9,0,0,1,.637-.258.882.882,0,0,1,.91.91v8.5a.825.825,0,0,1-.273.622A.9.9,0,0,1,84.915,164.359Zm7.343,0a.882.882,0,0,1-.91-.91v-8.5a.825.825,0,0,1,.273-.622.9.9,0,0,1,.637-.258.882.882,0,0,1,.91.91v8.5a.825.825,0,0,1-.273.622A.9.9,0,0,1,92.258,164.359ZM80.88,168a.825.825,0,0,1-.622-.273A.9.9,0,0,1,80,167.09a.882.882,0,0,1,.91-.91h22.483a.825.825,0,0,1,.622.273.9.9,0,0,1,.258.637.882.882,0,0,1-.91.91Zm18.478-3.641a.882.882,0,0,1-.91-.91v-8.5a.825.825,0,0,1,.273-.622.9.9,0,0,1,.637-.258.882.882,0,0,1,.91.91v8.5a.825.825,0,0,1-.273.622A.9.9,0,0,1,99.358,164.359Zm-6.311-20.116,10.559,6.008a1.5,1.5,0,0,1,.485.455,1.07,1.07,0,0,1,.182.607.82.82,0,0,1-.334.683,1.208,1.208,0,0,1-.759.258H81.092a1.208,1.208,0,0,1-.759-.258.82.82,0,0,1-.334-.683,1.08,1.08,0,0,1,.2-.622,1.308,1.308,0,0,1,.5-.44l10.528-6.008a1.828,1.828,0,0,1,1.82,0Z" transform="translate(-80 -144)"/></svg>