<svg xmlns="http://www.w3.org/2000/svg" width="24.272" height="23.999" viewBox="0 0 24.272 23.999"><path d="M84.915,164.359a.882.882,0,0,1-.91-.91v-8.5a.825.825,0,0,1,.273-.622.9.9,0,0,1,.637-.258.882.882,0,0,1,.91.91v8.5a.825.825,0,0,1-.273.622A.9.9,0,0,1,84.915,164.359Zm7.342,0a.882.882,0,0,1-.91-.91v-8.5a.825.825,0,0,1,.273-.622.9.9,0,0,1,.637-.258.882.882,0,0,1,.91.91v8.5a.825.825,0,0,1-.273.622A.9.9,0,0,1,92.258,164.359ZM80.88,168a.825.825,0,0,1-.622-.273.9.9,0,0,1-.258-.637.882.882,0,0,1,.91-.91h22.482a.825.825,0,0,1,.622.273.9.9,0,0,1,.258.637.882.882,0,0,1-.91.91Zm18.477-3.641a.882.882,0,0,1-.91-.91v-8.5a.825.825,0,0,1,.273-.622.9.9,0,0,1,.637-.258.882.882,0,0,1,.91.91v8.5a.825.825,0,0,1-.273.622A.9.9,0,0,1,99.357,164.359Zm-6.311-20.116L103.6,150.25a1.2,1.2,0,0,1,.485.44,1.143,1.143,0,0,1,.182.622.82.82,0,0,1-.334.683,1.208,1.208,0,0,1-.759.258H81.092a1.208,1.208,0,0,1-.759-.258.82.82,0,0,1-.334-.683,1.012,1.012,0,0,1,.2-.607,1.666,1.666,0,0,1,.5-.455l10.528-6.007a1.828,1.828,0,0,1,1.82,0Zm-8.981,6.189h0Zm0,0h16.141l-8.071-4.612Z" transform="translate(-80 -144)"/></svg>