<svg xmlns="http://www.w3.org/2000/svg" width="28.536" height="18.159" viewBox="0 0 28.536 18.159"><path d="M53.944,310.268h.94V309.23a2.694,2.694,0,0,0,1.54-.746,2.121,2.121,0,0,0,.632-1.589,1.8,1.8,0,0,0-.649-1.411,5.5,5.5,0,0,0-1.492-.924v-2.4a1.173,1.173,0,0,1,.535.324,1.378,1.378,0,0,1,.308.551l1.167-.486a2.158,2.158,0,0,0-.778-1.086,3,3,0,0,0-1.232-.535v-1.038h-.973V300.9a2.668,2.668,0,0,0-1.54.665,1.927,1.927,0,0,0-.632,1.508,1.862,1.862,0,0,0,.665,1.459,5.538,5.538,0,0,0,1.508.94v2.562a1.956,1.956,0,0,1-.876-.551,2.062,2.062,0,0,1-.486-.908l-1.135.486a3.1,3.1,0,0,0,.908,1.492,2.908,2.908,0,0,0,1.589.713Zm.973-2.27v-2.14a2.83,2.83,0,0,1,.632.389.831.831,0,0,1,.276.681.892.892,0,0,1-.259.73A2.042,2.042,0,0,1,54.916,308Zm-.973-3.859a3.225,3.225,0,0,1-.649-.389.809.809,0,0,1-.292-.681.764.764,0,0,1,.292-.665,1.575,1.575,0,0,1,.649-.276Zm-4.864,10.02a9.08,9.08,0,1,1,0-18.159H59.456a9.08,9.08,0,1,1,0,18.159Zm0-1.946H59.456a7.134,7.134,0,1,0,0-14.268H49.08a7.134,7.134,0,1,0,0,14.268ZM54.268,305.08Z" transform="translate(-40 -296)"/></svg>